{"title":"A.Good.Day.to.Die.Hard.2013.DVDRip.XviD-SPARKS","uid":8495074,"size":736524883,"categoryP":"video","categoryS":"movies","magnet":"?xt=urn:btih:de366be430c8cf2e636ad1c09a3a664f27855a1f&amp;dn=A.Good.Day.to.Die.Hard.2013.DVDRip.XviD-SPARKS&amp;tr=udp%3A%2F%2Ftracker.openbittorrent.com%3A80&amp;tr=udp%3A%2F%2Fopen.demonii.com%3A1337&amp;tr=udp%3A%2F%2Ftracker.coppersurfer.tk%3A6969&amp;tr=udp%3A%2F%2Fexodus.desync.com%3A6969","seeders":4,"leechers":0,"uploader":"xxxlavalxxx","files":3,"time":1369115518,"description":"\n &lt;a href=&quot;\nhttp://www.imdb.com/title/tt1606378/&quot; rel=&quot;nofollow&quot; target=&quot;_NEW&quot;&gt;\nhttp://www.imdb.com/title/tt1606378/&lt;/a&gt;\n\n\n[b]John McClane travels to Russia to help out his seemingly wayward son, Jack, only to discover that Jack is a CIA operative working to prevent a nuclear-weapons heist, causing the father and son to team up against underworld forces. \n\n\n\nDirector:\n John Moore\n\nWriters:\n Skip Woods, Roderick Thorp (certain original characters)\n\nStars:\n Bruce Willis, Jai Courtney, Sebastian Koch\n\nGenres:\n Action | Crime | Thriller \n\nCountry:\nUSA\n\n [/b]\n\n\n\nA.Good.Day.to.Die.Hard.2013.DVDRip.XviD-SPARKS\n\n Release.Date: 21.05.2013\n Video: XVID 850Kbps\n Frame.Rate: 23.976\n Resolution: 640x352\n Audio: MPEG-1 Stereo 128kbps VBR\n Language: English\n Length: 1h 38m\n Source: Retail DVD\n Size: 700MB\n\n\nFormat                                   : AVI\nFormat/Info                              : Audio Video Interleave\nFile size                                : 702 MiB\nDuration                                 : 1h 37mn\nOverall bit rate mode                    : Variable\nOverall bit rate                         : 1 006 Kbps\nWriting application                      : VirtualDubMod 1.5.10.2 (build 2540/release)\nWriting library                          : VirtualDubMod build 2540/release\n\nVideo\nID                                       : 0\nFormat                                   : MPEG-4 Visual\nFormat profile                           : Advanced Simple@L5\nFormat settings, BVOP                    : 2\nFormat settings, QPel                    : No\nFormat settings, GMC                     : No warppoints\nFormat settings, Matrix                  : Default (H.263)\nCodec ID                                 : XVID\nCodec ID/Hint                            : XviD\nDuration                                 : 1h 37mn\nBit rate                                 : 868 Kbps\nWidth                                    : 640 pixels\nHeight                                   : 352 pixels\nDisplay aspect ratio                     : 16:9\nFrame rate                               : 19.181 fps\nOriginal frame rate                      : 19.185 fps\nColor space                              : YUV\nChroma subsampling                       : 4:2:0\nBit depth                                : 8 bits\nScan type                                : Progressive\nCompression mode                         : Lossy\nBits/(Pixel*Frame)                       : 0.201\nStream size                              : 606 MiB (86%)\nWriting library                          : XviD 61\n\nAudio\nID                                       : 1\nFormat                                   : MPEG Audio\nFormat version                           : Version 1\nFormat profile                           : Layer 3\nMode                                     : Joint stereo\nMode extension                           : MS Stereo\nCodec ID                                 : 55\nCodec ID/Hint                            : MP3\nDuration                                 : 1h 37mn\nBit rate mode                            : Variable\nBit rate                                 : 128 Kbps\nChannel(s)                               : 2 channels\nSampling rate                            : 48.0 KHz\nCompression mode                         : Lossy\nStream size                              : 88.1 MiB (13%)\nAlignment                                : Aligned on interleaves\nInterleave, duration                     : 24 ms (0.46 video frame)\nInterleave, preload duration             : 127 ms\n\n\n\n\nscreens\n\n\n    &lt;a href=&quot;\thttp://addpix.net/viewer.php?file=40317193179397956432.jpg&quot; rel=&quot;nofollow&quot; target=&quot;_NEW&quot;&gt;\thttp://addpix.net/viewer.php?file=40317193179397956432.jpg&lt;/a&gt;\n    &lt;a href=&quot;\thttp://addpix.net/viewer.php?file=04256091241962073659.jpg&quot; rel=&quot;nofollow&quot; target=&quot;_NEW&quot;&gt;\thttp://addpix.net/viewer.php?file=04256091241962073659.jpg&lt;/a&gt;\n    &lt;a href=&quot;\thttp://addpix.net/viewer.php?file=22737733276787516766.jpg&quot; rel=&quot;nofollow&quot; target=&quot;_NEW&quot;&gt;\thttp://addpix.net/viewer.php?file=22737733276787516766.jpg&lt;/a&gt;\n    &lt;a href=&quot;\thttp://addpix.net/viewer.php?file=43337781013770447697.jpg&quot; rel=&quot;nofollow&quot; target=&quot;_NEW&quot;&gt;\thttp://addpix.net/viewer.php?file=43337781013770447697.jpg&lt;/a&gt;\n    &lt;a href=&quot;\thttp://addpix.net/viewer.php?file=10698744335083093091.jpg&quot; rel=&quot;nofollow&quot; target=&quot;_NEW&quot;&gt;\thttp://addpix.net/viewer.php?file=10698744335083093091.jpg&lt;/a&gt;\n    &lt;a href=&quot;\thttp://addpix.net/viewer.php?file=44108668716434747934.jpg&quot; rel=&quot;nofollow&quot; target=&quot;_NEW&quot;&gt;\thttp://addpix.net/viewer.php?file=44108668716434747934.jpg&lt;/a&gt;","torrent":{"xt":"urn:btih:de366be430c8cf2e636ad1c09a3a664f27855a1f","amp;dn":"A.Good.Day.to.Die.Hard.2013.DVDRip.XviD-SPARKS","amp;tr":["udp%3A%2F%2Ftracker.openbittorrent.com%3A80","udp%3A%2F%2Fopen.demonii.com%3A1337","udp%3A%2F%2Ftracker.coppersurfer.tk%3A6969","udp%3A%2F%2Fexodus.desync.com%3A6969"],"infoHash":"de366be430c8cf2e636ad1c09a3a664f27855a1f","infoHashBuffer":{"type":"Buffer","data":[222,54,107,228,48,200,207,46,99,106,209,192,154,58,102,79,39,133,90,31]},"announce":[],"urlList":[]}}